<svg id="Layer_1" data-name="Layer 1" xmlns="http://www.w3.org/2000/svg" viewBox="0 0 946.85 987.82">
  <defs>
    <style>
      .cls-1, .cls-2 {
        fill: none;
        stroke: #f4efed;
        stroke-width: 22.74px;
      }

      .cls-1 {
        stroke-miterlimit: 10;
      }

      .cls-2 {
        stroke-linecap: round;
        stroke-linejoin: round;
      }
    </style>
  </defs>
  <g>
    <path class="cls-1" d="M685.74,695.43c-37.67,32.76-154,29.29-142.46-42S756,522.64,800.33,476.39s50-184.69-27.28-257.63C675.7,126.91,540,310.6,540,362.81c0-52.21-136.55-235.9-233.9-144-77.29,72.94-71.61,211.37-27.28,257.63S523.11,581.33,534.67,652.65s-97,68.29-132.39,42.78" transform="translate(-66.57 -38.63)"/>
    <path class="cls-1" d="M539.82,994.73s38.88-100.82,224-259.94S994,451.91,1000.46,391.52c9-84-19.86-191.48-89.53-267-168.1-182.22-371.35,27.1-371.35,27.1S337.17-57.71,169.07,124.51c-69.67,75.53-98.53,183-89.53,267C86,451.91,131,575.66,316.17,734.79S539.82,994.73,539.82,994.73Z" transform="translate(-66.57 -38.63)"/>
    <path class="cls-1" d="M537.65,658.45C537.3,637,620.07,577,620.07,577c-13.35-16.16-81.51-12.93-81.52-12.93S470.38,559.64,457,575.8C457,575.8,538,637,537.65,658.45Z" transform="translate(-66.57 -38.63)"/>
    <path class="cls-1" d="M357.2,374.51c42.15,0,115.52-31.95,114.64,55.19,0,2.81.2,11.44,0,14.5,0,0-2.23-1.18-8.62-7.08a62.77,62.77,0,0,0-12.5-9.23C431.78,417.2,371.52,406.5,357.2,374.51Z" transform="translate(-66.57 -38.63)"/>
    <path class="cls-1" d="M469.35,404.17s9.76,40-7.19,168.45" transform="translate(-66.57 -38.63)"/>
    <path class="cls-2" d="M538.55,663.69c9.08,33.59,59.45,50.65,59.45,50.65s-23,13.57-59.45,12.79c-36.44.78-59.44-12.79-59.44-12.79S529.48,697.28,538.55,663.69Z" transform="translate(-66.57 -38.63)"/>
    <path class="cls-1" d="M722.93,380c-42.14,0-115.52-31.95-114.64,55.18,0,2.82-.19,11.44,0,14.51,0,0,2.22-1.18,8.62-7.09a62.76,62.76,0,0,1,12.49-9.22C648.36,422.64,708.61,411.93,722.93,380Z" transform="translate(-66.57 -38.63)"/>
    <path class="cls-1" d="M610.78,409.6s-9.76,40,7.2,168.46" transform="translate(-66.57 -38.63)"/>
    <path class="cls-1" d="M669.25,118.43S875.87,86,872.18,179.66s62.68,127.4,44.25,210.06S745.15,559.33,741.51,611,674.76,812.16,623,812.16s-83-18.06-83-18.06-31.19,18.06-83,18.06S342.13,662.65,338.49,611,182,472.37,163.57,389.72s47.93-116.44,44.25-210.06,202.93-61.23,202.93-61.23" transform="translate(-66.57 -38.63)"/>
  </g>
</svg>
