<svg id="Layer_1" data-name="Layer 1" xmlns="http://www.w3.org/2000/svg" viewBox="0 0 820.1 1032.29">
  <defs>
    <style>
      .cls-1, .cls-2 {
        fill: #fff;
      }

      .cls-1, .cls-10, .cls-11, .cls-2, .cls-3, .cls-4, .cls-5, .cls-6, .cls-7, .cls-8, .cls-9 {
        stroke: #000;
      }

      .cls-1, .cls-10, .cls-2, .cls-3, .cls-4, .cls-9 {
        stroke-miterlimit: 10;
      }

      .cls-1 {
        stroke-width: 6.65px;
      }

      .cls-2 {
        stroke-width: 6.01px;
      }

      .cls-10, .cls-11, .cls-3, .cls-4, .cls-5, .cls-6, .cls-7, .cls-8, .cls-9 {
        fill: none;
      }

      .cls-3, .cls-4 {
        stroke-width: 27.98px;
      }

      .cls-4 {
        stroke-dasharray: 4.9 19.61;
      }

      .cls-5 {
        stroke-width: 2.21px;
      }

      .cls-6 {
        stroke-width: 11.98px;
        stroke-dasharray: 2.01 6.02;
      }

      .cls-7 {
        stroke-width: 1.1px;
      }

      .cls-8 {
        stroke-width: 0.81px;
      }

      .cls-9 {
        stroke-width: 2.44px;
      }

      .cls-10 {
        stroke-width: 2.84px;
      }

      .cls-11 {
        stroke-width: 1.19px;
      }
    </style>
  </defs>
  <g>
    <g>
      <path d="M528.62,23.91s-410-10.24-410,252.92V803.17c0,263.16,410.05,252.92,410.05,252.92s410.05,10.24,410.05-252.92V276.83C938.67,13.67,528.62,23.91,528.62,23.91Z" transform="translate(-118.57 -23.86)"/>
      <path class="cls-1" d="M527.56,51.71S138.31,42,138.31,291.81V791.45c0,249.82,389.25,240.09,389.25,240.09s389.26,9.73,389.26-240.09V291.81C916.82,42,527.56,51.71,527.56,51.71Z" transform="translate(-118.57 -23.86)"/>
      <path class="cls-2" d="M529.85,98.53s-352-8.79-352,217.15V767.57c0,225.94,352.05,217.15,352.05,217.15s352.06,8.79,352.06-217.15V315.68C881.91,89.74,529.85,98.53,529.85,98.53Z" transform="translate(-118.57 -23.86)"/>
      <g>
        <path class="cls-3" d="M155.09,536.58v4.88" transform="translate(-118.57 -23.86)"/>
        <path class="cls-4" d="M155.09,561.07V775.3c0,236.28,373.62,227.08,373.62,227.08s373.61,9.2,373.61-227.08v-224" transform="translate(-118.57 -23.86)"/>
        <path class="cls-3" d="M902.32,541.46v-4.88" transform="translate(-118.57 -23.86)"/>
        <path class="cls-4" d="M902.32,517V302.74c0-236.28-373.61-227.08-373.61-227.08s-373.62-9.2-373.62,227.08v224" transform="translate(-118.57 -23.86)"/>
      </g>
    </g>
    <g>
      <path d="M378.5,552.45a20.55,20.55,0,0,0,2.91-11.25V291.61q-.42-7.5-3.12-11.67t-10.21-4.17v-1.25h41.25v1.25q-7.5,0-10.21,4.38c-1.81,2.91-2.85,6.74-3.12,11.46V540q0,10.84,6.66,10.84a10.83,10.83,0,0,0,3.34-.42,191.8,191.8,0,0,1,53.75-7.5q21.66,0,55.42,4.58,3.33.42,21,2.5a288.68,288.68,0,0,0,34,2.09,191.82,191.82,0,0,0,49.38-6.46q24.38-6.47,50.21-21.88V525Q641.42,547.87,614.55,557a168.72,168.72,0,0,1-54.79,9.16,223.55,223.55,0,0,1-27.3-1.66q-13.55-1.66-33.54-5-38.76-7.08-61.67-7.09a155.11,155.11,0,0,0-30.42,2.92c-3.33.56-8.41,1.25-15.21,2.08a115.25,115.25,0,0,1-19.37.84h-4.17v-1.67Q375.58,557,378.5,552.45Z" transform="translate(-118.57 -23.86)"/>
      <path d="M471.11,843.91a18.66,18.66,0,0,0-1.08-5.79L388.17,615.73q-3.26-7.61-7.43-11.23t-13.22-4.34v-1.09H411v1.09q-10.51-.36-10.51,7.6a18.81,18.81,0,0,0,1.09,5.8l16.66,45.63,63,171q13.77-38.39,21-57.59l15.21-41.65L475.1,615.73q-2.91-7.25-7.25-11.05t-13-4.52v-1.09h43.47v1.09q-10.87-.36-10.87,7.6a18.52,18.52,0,0,0,1.09,5.8q6.15,16.66,11.41,30.78t9.59,26.08l15.21,41.29,38-103.59a12,12,0,0,0,.72-3.62c0-2.65-1.94-4-5.8-4h-2.53v-1.45H583v1.45q-7.6,0-10.69,1.81t-5.61,8L526.89,718.23l41.29,111.92,81.49-222a11.63,11.63,0,0,0,.73-3.26c0-2.89-1.94-4.34-5.8-4.34h-2.17v-1.45h27.89v1.45q-7.61,0-10.69,1.81c-2,1.21-3.93,3.87-5.61,8l-83.67,226a1.47,1.47,0,0,1,.36,1.08q2.89,7.61,7.07,10.69T591,851.52v1.08H547.53v-1.08q10.5.36,10.51-7.61a18.71,18.71,0,0,0-1.09-5.79L520,737.06l-36.58,99.25.36,1.08q2.9,7.61,6.88,10.69t13,3.44v1.08H460.25v-1.08Q471.11,851.88,471.11,843.91Z" transform="translate(-118.57 -23.86)"/>
      <g>
        <path d="M497.9,502.83a108.54,108.54,0,0,1-40.13-42.26,119.92,119.92,0,0,1-14.24-57.47q0-37,19.23-63.88a123.11,123.11,0,0,1,48.92-40.6,142.48,142.48,0,0,1,60.55-13.77q33.24,0,58.65,16.38a110.44,110.44,0,0,1,39,42.51,117.17,117.17,0,0,1,13.53,54.61,111.7,111.7,0,0,1-17.1,59.6A127.78,127.78,0,0,1,557,518.5Q523.79,518.5,497.9,502.83Zm130.61-20.42q22.08-26.1,22.08-72.18,0-31.82-11.16-57.94T606.9,310.5q-21.37-15.67-50.82-15.68-38,0-58.88,25.41t-20.9,71q0,32.77,11.16,59.36t32.29,42.27q21.12,15.67,49.63,15.67Q606.42,508.53,628.51,482.41Z" transform="translate(-118.57 -23.86)"/>
        <path class="cls-5" d="M619.23,469.83q18.93-22.38,18.93-61.89,0-27.27-9.57-49.67T600.7,322.44Q582.37,309,557.13,309q-32.58,0-50.49,21.78t-17.91,60.87q0,28.11,9.56,50.9T526,478.79q18.12,13.44,42.55,13.43Q600.29,492.22,619.23,469.83Z" transform="translate(-118.57 -23.86)"/>
        <path class="cls-6" d="M613.93,463.26c28.27-33.76,21.52-106.71-16.77-133.4q-16.57-12.17-39.43-12.16c-63.08-1.08-72.35,73.71-53.25,120.87q8.65,20.64,25.06,32.8c23.87,18.43,65.56,16.1,84.39-8.11Z" transform="translate(-118.57 -23.86)"/>
        <path class="cls-7" d="M624,475.69q20.53-24.27,20.54-67.13,0-29.58-10.38-53.88t-30.25-38.87Q584,301.23,556.6,301.23q-35.36,0-54.77,23.63t-19.43,66q0,30.48,10.37,55.21t30,39.31Q542.44,500,569,500,603.42,500,624,475.69Z" transform="translate(-118.57 -23.86)"/>
        <path class="cls-8" d="M608.84,456q15.1-17.88,15.11-49.42,0-21.78-7.64-39.67A67.45,67.45,0,0,0,594,338.29q-14.64-10.74-34.79-10.73-26,0-40.32,17.39t-14.31,48.61q0,22.44,7.64,40.64t22.11,28.94q14.48,10.74,34,10.73Q593.71,473.87,608.84,456Z" transform="translate(-118.57 -23.86)"/>
        <g>
          <path class="cls-9" d="M577.21,428.55c-4,3.45-16.2,3.08-15-4.42s22.37-13.76,27-18.62,5.27-19.43-2.86-27.1c-10.24-9.66-24.52,9.66-24.52,15.15,0-5.49-14.36-24.81-24.6-15.15-8.13,7.67-7.54,22.23-2.87,27.1s25.69,11,26.91,18.54-10.21,7.18-13.93,4.5" transform="translate(-118.57 -23.86)"/>
          <path class="cls-10" d="M561.86,460s4.09-10.6,23.57-27.34,24.21-29.76,24.89-36.11a37.47,37.47,0,0,0-9.42-28.09c-17.68-19.16-39.17,5.09-39.17,5.09s-21.19-24.25-38.87-5.09a37.47,37.47,0,0,0-9.42,28.09c.68,6.35,5.42,19.37,24.89,36.11S561.86,460,561.86,460Z" transform="translate(-118.57 -23.86)"/>
          <path class="cls-9" d="M561.63,424.66c0-2.26,8.67-8.56,8.67-8.56-1.4-1.7-8.57-1.36-8.57-1.36s-7.17-.47-8.58,1.23C553.15,416,561.67,422.4,561.63,424.66Z" transform="translate(-118.57 -23.86)"/>
          <path class="cls-9" d="M542.65,394.79c4.43,0,12.15-3.36,12.06,5.81,0,.29,0,1.2,0,1.52a5.79,5.79,0,0,1-.91-.74,6.35,6.35,0,0,0-1.31-1C550.5,399.28,544.16,398.16,542.65,394.79Z" transform="translate(-118.57 -23.86)"/>
          <path class="cls-9" d="M554.45,397.91s1,4.21-.76,17.72" transform="translate(-118.57 -23.86)"/>
          <path class="cls-9" d="M561.73,425.66c1.26,3.27,6.25,4.88,6.25,4.88a15.25,15.25,0,0,1-12.5,0S560.48,429,561.73,425.66Z" transform="translate(-118.57 -23.86)"/>
          <path class="cls-9" d="M581.12,395.36c-4.43,0-12.15-3.36-12.06,5.81,0,.29,0,1.2,0,1.52A5.22,5.22,0,0,0,570,402a6.74,6.74,0,0,1,1.31-1C573.28,399.85,579.62,398.73,581.12,395.36Z" transform="translate(-118.57 -23.86)"/>
          <path class="cls-9" d="M569.33,398.48s-1,4.21.75,17.72" transform="translate(-118.57 -23.86)"/>
          <path class="cls-9" d="M575.48,367.85s21.73-3.4,21.34,6.44,6.6,13.41,4.66,22.1-18,17.84-18.4,23.28-7,21.16-12.47,21.16a18.69,18.69,0,0,1-8.73-1.9,18.69,18.69,0,0,1-8.73,1.9c-5.45,0-12.08-15.73-12.47-21.16s-16.46-14.58-18.4-23.28,5.05-12.25,4.66-22.1,21.34-6.44,21.34-6.44" transform="translate(-118.57 -23.86)"/>
        </g>
        <path class="cls-11" d="M493,510.21a116.6,116.6,0,0,1-43.17-45.46,128.93,128.93,0,0,1-15.32-61.81q0-39.85,20.69-68.72a132.45,132.45,0,0,1,52.61-43.68q31.93-14.81,65.14-14.81,35.76,0,63.09,17.63a118.71,118.71,0,0,1,41.9,45.72,126.09,126.09,0,0,1,14.55,58.74,120.19,120.19,0,0,1-18.39,64.12,137.43,137.43,0,0,1-117.5,65.13Q520.79,527.07,493,510.21Z" transform="translate(-118.57 -23.86)"/>
      </g>
    </g>
  </g>
</svg>
